<?xml version="1.0" encoding="UTF-8" standalone="no"?>
<!DOCTYPE svg PUBLIC "-//W3C//DTD SVG 20010904//EN"
              "http://www.w3.org/TR/2001/REC-SVG-20010904/DTD/svg10.dtd">

<svg xmlns="http://www.w3.org/2000/svg"
     width="1.70667in" height="1.70667in"
     viewBox="0 0 512 512">
  <path id="パス"
        fill="none" stroke="black" stroke-width="1"
        d="M 120.44,161.56
           C 120.44,161.56 173.91,161.56 173.91,161.56
             173.30,153.75 167.86,143.83 157.59,131.80
             157.59,131.80 159.41,130.00 159.41,130.00
             169.07,134.81 175.87,139.02 179.80,142.62
             183.72,146.23 185.69,148.93 185.69,150.73
             185.69,154.35 183.57,157.96 179.34,161.56
             179.34,161.56 211.06,161.56 211.06,161.56
             211.06,161.56 221.03,151.59 221.03,151.59
             221.03,151.59 236.44,167.00 236.44,167.00
             236.44,167.00 150.34,167.00 150.34,167.00
             142.49,167.00 135.24,167.91 128.59,169.72
             128.59,169.72 120.44,161.56 120.44,161.56 Z
           M 139.47,175.16
           C 152.76,184.82 160.16,191.17 161.67,194.19
             163.18,197.21 163.94,199.93 163.94,202.34
             163.94,205.37 162.73,208.23 160.31,210.95
             157.89,213.67 156.08,215.03 154.88,215.03
             153.06,215.03 151.85,212.31 151.25,206.88
             149.44,198.42 144.60,188.45 136.75,176.97
             136.75,176.97 139.47,175.16 139.47,175.16 Z
           M 200.19,171.53
           C 200.19,171.53 219.22,182.41 219.22,182.41
             219.22,182.41 211.06,186.03 211.06,186.03
             202.60,200.53 195.35,211.71 189.31,219.56
             189.31,219.56 221.03,219.56 221.03,219.56
             221.03,219.56 231.91,208.69 231.91,208.69
             231.91,208.69 248.22,225.00 248.22,225.00
             248.22,225.00 140.38,225.00 140.38,225.00
             132.52,225.00 125.27,225.91 118.62,227.72
             118.62,227.72 110.47,219.56 110.47,219.56
             110.47,219.56 183.88,219.56 183.88,219.56
             191.73,202.65 197.16,186.64 200.19,171.53 Z
           M 131.31,342.00
           C 131.91,328.70 132.22,312.98 132.22,294.83
             132.22,276.68 131.91,258.84 131.31,241.31
             131.31,241.31 145.81,248.56 145.81,248.56
             145.81,248.56 208.34,248.56 208.34,248.56
             208.34,248.56 216.50,240.41 216.50,240.41
             216.50,240.41 229.19,252.19 229.19,252.19
             229.19,252.19 221.03,257.64 221.03,257.64
             221.03,296.95 221.63,322.35 222.84,333.84
             222.84,333.84 209.25,339.28 209.25,339.28
             209.25,339.28 209.25,323.00 209.25,323.00
             209.25,323.00 144.00,323.00 144.00,323.00
             144.00,323.00 144.00,335.67 144.00,335.67
             144.00,335.67 131.31,342.00 131.31,342.00 Z
           M 144.00,254.00
           C 144.00,254.00 144.00,282.56 144.00,282.56
             144.00,282.56 209.25,282.56 209.25,282.56
             209.25,282.56 209.25,254.00 209.25,254.00
             209.25,254.00 144.00,254.00 144.00,254.00 Z
           M 144.00,288.00
           C 144.00,288.00 144.00,317.56 144.00,317.56
             144.00,317.56 209.25,317.56 209.25,317.56
             209.25,317.56 209.25,288.00 209.25,288.00
             209.25,288.00 144.00,288.00 144.00,288.00 Z
           M 59.72,166.00
           C 59.72,166.00 59.72,222.56 59.72,222.56
             59.72,222.56 93.25,222.56 93.25,222.56
             93.25,222.56 93.25,166.00 93.25,166.00
             93.25,166.00 59.72,166.00 59.72,166.00 Z
           M 59.72,228.00
           C 59.72,228.00 59.72,287.56 59.72,287.56
             59.72,287.56 93.25,287.56 93.25,287.56
             93.25,287.56 93.25,228.00 93.25,228.00
             93.25,228.00 59.72,228.00 59.72,228.00 Z
           M 105.03,169.64
           C 105.03,239.79 105.33,284.23 105.94,302.97
             105.94,302.97 93.25,310.22 93.25,310.22
             93.25,310.22 93.25,293.00 93.25,293.00
             93.25,293.00 59.72,293.00 59.72,293.00
             59.72,293.00 59.72,308.41 59.72,308.41
             59.72,308.41 47.03,316.56 47.03,316.56
             47.63,293.59 47.94,267.45 47.94,238.12
             47.94,208.79 47.63,180.22 47.03,152.41
             47.03,152.41 61.53,160.56 61.53,160.56
             61.53,160.56 92.34,160.56 92.34,160.56
             92.34,160.56 99.59,152.41 99.59,152.41
             99.59,152.41 112.28,164.19 112.28,164.19
             112.28,164.19 105.03,169.64 105.03,169.64 Z
           M 390.50,308.61
           C 390.50,318.35 394.73,323.22 403.19,323.22
             403.19,323.22 448.50,323.22 448.50,323.22
             455.75,323.82 460.28,322.01 462.09,317.78
             463.91,313.55 464.81,300.87 464.81,279.72
             464.81,279.72 469.34,279.72 469.34,279.72
             470.55,297.84 471.91,309.02 473.42,313.25
             474.93,317.48 478.10,320.20 482.94,321.41
             478.10,330.47 469.95,335.00 458.47,335.00
             458.47,335.00 401.38,335.00 401.38,335.00
             385.66,335.00 377.81,326.48 377.81,309.45
             377.81,309.45 377.81,233.72 377.81,233.72
             377.81,227.03 377.51,218.23 376.91,207.31
             376.91,207.31 390.50,214.56 390.50,214.56
             390.50,214.56 450.31,214.56 450.31,214.56
             450.31,214.56 450.31,157.00 450.31,157.00
             450.31,157.00 391.41,157.00 391.41,157.00
             386.57,157.00 380.83,157.91 374.19,159.72
             374.19,159.72 366.03,151.56 366.03,151.56
             366.03,151.56 447.59,151.56 447.59,151.56
             447.59,151.56 454.84,140.69 454.84,140.69
             454.84,140.69 470.25,154.27 470.25,154.27
             470.25,154.27 463.00,159.67 463.00,159.67
             463.00,190.29 463.30,212.21 463.91,225.44
             463.91,225.44 450.31,232.69 450.31,232.69
             450.31,232.69 450.31,220.00 450.31,220.00
             450.31,220.00 390.50,220.00 390.50,220.00
             390.50,220.00 390.50,308.61 390.50,308.61 Z
           M 300.78,136.72
           C 300.78,136.72 302.59,134.00 302.59,134.00
             316.49,139.44 324.19,144.28 325.70,148.52
             327.21,152.75 327.97,155.46 327.97,156.67
             327.97,160.31 326.16,163.94 322.53,167.56
             322.53,167.56 344.28,167.56 344.28,167.56
             344.28,167.56 354.25,157.59 354.25,157.59
             354.25,157.59 369.66,173.00 369.66,173.00
             369.66,173.00 294.44,173.00 294.44,173.00
             289.60,173.00 283.86,173.91 277.22,175.72
             277.22,175.72 269.06,167.56 269.06,167.56
             269.06,167.56 314.38,167.56 314.38,167.56
             314.38,160.91 313.47,155.46 311.66,151.23
             309.84,147.01 306.22,142.17 300.78,136.72 Z
           M 295.34,271.00
           C 295.34,271.00 295.34,312.56 295.34,312.56
             295.34,312.56 341.56,312.56 341.56,312.56
             341.56,312.56 341.56,271.00 341.56,271.00
             341.56,271.00 295.34,271.00 295.34,271.00 Z
           M 279.03,200.56
           C 279.03,200.56 337.94,200.56 337.94,200.56
             337.94,200.56 347.00,192.41 347.00,192.41
             347.00,192.41 359.69,206.00 359.69,206.00
             359.69,206.00 304.41,206.00 304.41,206.00
             299.57,206.00 293.83,206.91 287.19,208.72
             287.19,208.72 279.03,200.56 279.03,200.56 Z
           M 279.03,233.56
           C 279.03,233.56 332.50,233.56 332.50,233.56
             332.50,233.56 342.47,224.50 342.47,224.50
             342.47,224.50 356.97,239.00 356.97,239.00
             356.97,239.00 304.41,239.00 304.41,239.00
             299.57,239.00 293.83,239.91 287.19,241.72
             287.19,241.72 279.03,233.56 279.03,233.56 Z
           M 282.66,258.31
           C 282.66,258.31 297.16,265.56 297.16,265.56
             297.16,265.56 338.84,265.56 338.84,265.56
             338.84,265.56 347.00,256.50 347.00,256.50
             347.00,256.50 360.59,269.20 360.59,269.20
             360.59,269.20 353.34,274.66 353.34,274.66
             353.34,303.14 353.64,322.52 354.25,332.83
             354.25,332.83 341.56,339.19 341.56,339.19
             341.56,339.19 341.56,318.00 341.56,318.00
             341.56,318.00 295.34,318.00 295.34,318.00
             295.34,318.00 295.34,335.48 295.34,335.48
             295.34,335.48 282.66,341.00 282.66,341.00
             283.26,326.46 283.56,312.53 283.56,299.20
             283.56,285.87 283.26,272.24 282.66,258.31 Z" />
</svg>
